<svg width="140" height="112" viewBox="0 0 140 112" fill="none" xmlns="http://www.w3.org/2000/svg">
<g clip-path="url(#clip0_1733_860)">
<path d="M51.2814 103.742C41.2097 103.742 31.138 103.742 21.0664 103.742C20.4715 103.742 20.1741 104.038 20.1741 104.631C20.1741 106.288 20.1741 107.946 20.1741 109.596C20.1666 111.179 19.3575 111.985 17.7772 111.992C15.2215 111.992 12.6733 112 10.1176 111.992C8.58264 111.992 7.74333 111.149 7.74333 109.626C7.74333 98.7384 7.69796 87.8579 7.76601 76.9699C7.79626 72.3961 10.0722 69.1485 14.2536 67.2497C14.5485 67.1141 14.8585 66.986 15.1761 66.9559C15.9096 66.8805 16.0457 66.4736 16.0457 65.803C16.023 59.9483 16.023 54.0861 16.0457 48.2314C16.0532 45.5942 17.1647 43.5673 19.5617 42.324C20.2271 41.9774 20.9454 41.7589 21.7015 41.7137C22.0645 41.6911 22.4274 41.6835 22.7979 41.6835C41.8297 41.6835 60.8616 41.6835 79.8858 41.6685C81.6174 41.6685 83.175 42.0678 84.4831 43.2207C85.7156 44.3057 86.4869 45.662 86.5549 47.3197C86.623 48.9322 86.6079 50.5522 86.6079 52.1647C86.6079 56.746 86.623 61.3348 86.6003 65.916C86.6003 66.5113 86.812 66.7524 87.3716 66.9257C91.1598 68.0786 93.5567 70.5727 94.6077 74.3778C94.8799 75.3649 94.9177 76.3746 94.9253 77.3768C94.9404 88.0161 94.9329 98.6631 94.9329 109.302C94.9329 110.794 94.4792 111.555 93.413 111.887C93.1181 111.977 92.8157 111.992 92.5133 111.992C89.9802 111.992 87.4472 111.992 84.9141 111.992C83.3338 111.992 82.4718 111.133 82.4643 109.559C82.4567 107.863 82.434 106.168 82.4718 104.473C82.4869 103.877 82.2904 103.734 81.7081 103.734C71.576 103.749 61.4438 103.749 51.3116 103.749L51.2814 103.742ZM51.2663 87.1722C64.0146 87.1722 76.763 87.1722 89.5114 87.1722C89.7156 87.1722 89.9197 87.1572 90.1163 87.1722C90.5549 87.2024 90.7363 87.0215 90.7363 86.577C90.7212 83.3219 90.7363 80.0743 90.7212 76.8192C90.7137 74.7696 89.8441 73.127 88.226 71.8762C86.9481 70.8891 85.451 70.6179 83.8782 70.6179C62.1924 70.6179 40.5065 70.6179 18.8207 70.6179C18.6619 70.6179 18.4955 70.6179 18.3367 70.6179C14.5031 70.7083 11.9021 73.3531 11.8794 77.1733C11.8794 77.4973 11.8794 77.8213 11.8794 78.1453C11.8794 80.9333 11.8869 83.7212 11.8718 86.5091C11.8718 87.014 12.0382 87.2174 12.5372 87.1722C12.7414 87.1496 12.9455 87.1722 13.1421 87.1722C25.8527 87.1722 38.5557 87.1722 51.2663 87.1722ZM51.3041 91.3391C38.5784 91.3391 25.8451 91.3391 13.1194 91.3391C12.9001 91.3391 12.6733 91.3541 12.454 91.3391C12.0457 91.3089 11.8794 91.4672 11.8794 91.8967C11.8869 97.0506 11.8869 102.197 11.8794 107.351C11.8794 107.75 12.023 107.886 12.4087 107.878C13.3992 107.863 14.3973 107.848 15.3878 107.878C15.9171 107.901 16.0305 107.682 16.023 107.208C16.0003 105.535 16.0154 103.855 16.023 102.182C16.023 100.411 16.8169 99.6125 18.5636 99.6125C40.4158 99.6125 62.2604 99.6125 84.1126 99.6125C85.829 99.6125 86.5852 100.374 86.5927 102.091C86.5927 103.787 86.6079 105.482 86.5852 107.178C86.5776 107.698 86.7213 107.909 87.2733 107.878C88.105 107.841 88.9367 107.871 89.7685 107.871C90.4137 107.871 90.7363 107.557 90.7363 106.929C90.7363 102.039 90.7363 97.1561 90.7363 92.2659C90.7363 91.653 90.4238 91.3466 89.7987 91.3466C76.9672 91.3466 64.1356 91.3466 51.3116 91.3466L51.3041 91.3391ZM51.3116 45.8202C41.7692 45.8202 32.2193 45.8202 22.6769 45.8202C21.0891 45.8202 20.1893 46.634 20.1817 48.1485C20.1666 54.0635 20.1817 59.986 20.1666 65.901C20.1666 66.3229 20.3178 66.4812 20.7337 66.4736C21.6864 66.4586 22.6391 66.4435 23.5918 66.4736C24.1363 66.4962 24.3329 66.3305 24.3253 65.7578C24.295 63.3767 24.3026 60.9882 24.3253 58.6071C24.3253 57.5899 24.4614 56.5877 24.9151 55.6609C26.1173 53.197 28.1513 52.0215 30.8583 52.0065C34.828 51.9838 38.8052 51.9763 42.7749 52.0065C45.4894 52.0291 47.5007 53.2271 48.6954 55.6986C49.1491 56.648 49.2625 57.6728 49.2701 58.7051C49.2852 61.0484 49.2852 63.3918 49.2701 65.7352C49.2701 66.2777 49.4062 66.5038 49.9884 66.4736C50.8806 66.4284 51.7729 66.436 52.6651 66.4736C53.2398 66.4962 53.4439 66.3079 53.4364 65.7201C53.4061 63.3541 53.4212 60.9957 53.4212 58.6297C53.4212 57.718 53.4893 56.8138 53.8447 55.9623C54.805 53.6642 56.8465 51.9989 60.0223 52.0065C63.9164 52.0065 67.8029 52.0065 71.6969 52.0065C72.6724 52.0065 73.6402 52.1044 74.54 52.5264C76.9672 53.6717 78.2526 55.5856 78.2904 58.2605C78.3282 60.7847 78.3131 63.3089 78.2904 65.8332C78.2904 66.3079 78.4492 66.4736 78.918 66.4661C79.8934 66.4435 80.8613 66.4435 81.8367 66.4661C82.2752 66.4736 82.4416 66.3305 82.4416 65.8784C82.4265 59.9408 82.434 54.0032 82.434 48.0657C82.434 47.6136 82.366 47.1841 82.1089 46.7922C81.5947 46.0161 80.8386 45.8052 79.9539 45.8052C70.4115 45.8052 60.8616 45.8052 51.3192 45.8052L51.3116 45.8202ZM65.852 66.4661C68.3624 66.4661 70.8728 66.4435 73.3831 66.4812C74.0183 66.4887 74.1619 66.2853 74.1544 65.69C74.1241 63.3089 74.1468 60.9279 74.1393 58.5468C74.1393 57.0474 73.3907 56.1959 71.9087 56.1884C67.8785 56.1507 63.8483 56.1507 59.8181 56.1884C58.3134 56.2034 57.58 57.0172 57.58 58.5318C57.5724 60.9505 57.5875 63.3767 57.5648 65.7955C57.5648 66.3305 57.7236 66.4887 58.2529 66.4887C60.786 66.4661 63.3114 66.4812 65.8445 66.4812L65.852 66.4661ZM36.7637 66.4661C39.2967 66.4661 41.8297 66.451 44.3628 66.4736C44.9148 66.4736 45.1038 66.3079 45.1038 65.7427C45.0811 63.3767 45.1038 61.0183 45.0887 58.6523C45.0811 56.9871 44.3023 56.1733 42.6539 56.1658C38.7447 56.1432 34.828 56.1582 30.9188 56.1658C30.4802 56.1658 30.0341 56.1884 29.6258 56.4144C28.7184 56.9042 28.4916 57.733 28.4916 58.6674C28.4916 61.0108 28.5067 63.3541 28.4765 65.6975C28.4689 66.3305 28.6957 66.4812 29.2931 66.4736C31.7883 66.451 34.276 66.4661 36.7712 66.4661H36.7637Z" fill="#E1E1E1"/>
<path d="M0.598325 45.7218C0.598325 41.3741 0.621009 37.0339 0.583202 32.6862C0.575641 31.3149 1.15786 30.4559 2.39792 29.9058C14.0197 24.7218 25.6338 19.5226 37.248 14.331C47.7129 9.65933 58.1778 4.99517 68.6426 0.308412C69.5424 -0.0984772 70.4195 -0.113547 71.3193 0.293342C79.8258 4.10604 88.3398 7.91121 96.8539 11.7164C105.202 15.4462 113.549 19.176 121.897 22.8983C127.182 25.2567 132.468 27.6152 137.753 29.9736C138.872 30.471 139.417 31.3149 139.417 32.5732C139.401 41.4193 139.401 57.4236 139.417 66.2697C139.417 66.88 139.25 67.0985 138.615 67.0684C137.579 67.0156 136.536 67.0307 135.5 67.0684C134.933 67.091 134.766 66.8951 134.766 66.3375C134.789 62.7584 134.774 52.021 134.774 48.4419C134.774 43.7853 134.766 39.1211 134.789 34.4645C134.789 33.8994 134.6 33.6356 134.093 33.4096C121.277 27.6981 108.476 21.964 95.6668 16.2374C87.2813 12.4925 78.8806 8.75513 70.4951 5.00271C70.1246 4.83694 69.8449 4.85201 69.4819 5.01024C59.6371 9.41821 49.7847 13.8186 39.9399 18.2191C30.5638 22.4085 21.1802 26.5904 11.8042 30.7724C9.89118 31.6238 8.00085 32.528 6.06516 33.3267C5.37708 33.613 5.20317 33.9898 5.20317 34.6905C5.22585 42.753 5.21829 57.9661 5.21829 66.0285C5.21829 66.7167 4.88055 67.0608 4.20507 67.0608C3.28259 67.0608 2.35255 67.0232 1.43007 67.0759C0.787358 67.1136 0.575641 66.9177 0.583202 66.2546C0.613448 61.9747 0.598325 50.5442 0.598325 46.2643C0.598325 46.0834 0.598325 45.9026 0.598325 45.7218Z" fill="#E1E1E1"/>
<path d="M132.271 83.8414C132.271 88.8296 132.271 93.8177 132.271 98.8059C132.271 99.6122 132.271 99.6121 131.477 99.6121C130.585 99.6121 129.692 99.582 128.8 99.6197C128.263 99.6423 128.104 99.4614 128.104 98.934C128.127 95.2795 128.104 91.6251 128.127 87.9706C128.127 87.3603 127.968 87.1794 127.348 87.1794C119.568 87.202 111.787 87.1945 104.007 87.1794C103.394 87.1794 103.198 87.3603 103.205 87.9706C103.228 91.5648 103.22 95.159 103.213 98.7532C103.213 99.5971 103.205 99.6046 102.373 99.6121C101.504 99.6121 100.627 99.582 99.7571 99.6197C99.1749 99.6498 99.0161 99.4087 99.0312 98.8737C99.0539 97.9695 99.0312 97.0578 99.0312 96.1461C99.0312 87.1417 99.0312 78.1374 99.0312 69.1256C99.0312 68.2139 99.1598 67.3473 100.052 66.8199C100.483 66.5637 100.959 66.4658 101.443 66.4658C110.903 66.4658 120.369 66.4582 129.828 66.4658C131.409 66.4658 132.248 67.3398 132.248 68.9372C132.248 73.9028 132.248 78.8683 132.248 83.8414H132.271ZM115.666 83.0352C119.553 83.0352 123.447 83.0276 127.333 83.0503C127.931 83.0503 128.142 82.8996 128.135 82.2666C128.105 78.6574 128.12 75.0406 128.12 71.4313C128.12 70.6326 128.12 70.6326 127.303 70.6326C119.545 70.6326 111.787 70.6326 104.029 70.6326C103.25 70.6326 103.22 70.6627 103.22 71.469C103.22 75.0406 103.22 78.6121 103.22 82.1837C103.22 83.0276 103.235 83.0427 104.06 83.0427C107.931 83.0427 111.795 83.0427 115.666 83.0427V83.0352Z" fill="#E1E1E1"/>
<path d="M115.613 62.337C113.829 62.337 112.044 62.337 110.267 62.337C109.703 62.337 109.421 62.0456 109.421 61.4629C109.421 60.6115 109.451 59.7675 109.413 58.9161C109.39 58.3736 109.549 58.1551 110.124 58.1852C111.092 58.2304 112.067 58.1852 113.042 58.2003C113.436 58.2003 113.579 58.0646 113.572 57.6728C113.557 55.9774 113.557 54.2821 113.572 52.5867C113.572 52.1045 113.345 52.0216 112.937 52.0216C111.235 52.0291 109.534 52.0367 107.833 52.0216C107.288 52.0216 106.736 51.9764 106.26 51.6448C105.428 51.0646 105.118 50.281 105.436 49.2638C106.033 47.3424 106.683 45.4285 107.319 43.5221C108.007 41.4575 108.717 39.4005 109.39 37.3359C109.829 36.0022 110.517 35.4521 111.923 35.4521C114.419 35.4521 116.906 35.4521 119.402 35.4521C120.755 35.4521 121.443 35.9118 121.874 37.1701C123.228 41.1411 124.589 45.1045 125.866 49.0905C126.366 50.6351 125.572 51.999 123.621 52.0291C121.919 52.0517 120.218 52.0291 118.517 52.0366C117.768 52.0366 117.738 52.0743 117.738 52.8278C117.738 54.4026 117.753 55.9774 117.73 57.5523C117.723 58.0571 117.897 58.2304 118.396 58.2153C119.326 58.1852 120.264 58.2379 121.194 58.1927C121.776 58.1626 121.927 58.3962 121.912 58.9312C121.882 59.8354 121.882 60.7471 121.912 61.6588C121.927 62.1787 121.768 62.3671 121.224 62.3596C119.364 62.3294 117.496 62.352 115.628 62.352L115.613 62.337ZM115.636 47.8623C117.194 47.8623 118.751 47.8623 120.309 47.8623C121.005 47.8623 121.05 47.8246 120.838 47.1992C120.067 44.8483 119.265 42.5049 118.494 40.154C118.358 39.732 118.131 39.5889 117.7 39.5964C116.347 39.6115 114.986 39.6115 113.632 39.5964C113.179 39.5964 112.944 39.7622 112.801 40.1992C112.037 42.535 111.25 44.8558 110.464 47.1841C110.275 47.7492 110.343 47.8623 110.948 47.8698C112.506 47.8698 114.063 47.8698 115.621 47.8698L115.636 47.8623Z" fill="#E1E1E1"/>
<path d="M115.606 78.9063C114.449 78.9063 113.299 78.8912 112.15 78.9063C111.674 78.9138 111.507 78.7255 111.515 78.2658C111.538 77.3164 111.538 76.367 111.515 75.4251C111.507 74.9504 111.659 74.7319 112.173 74.7394C114.502 74.7621 116.823 74.7545 119.152 74.7394C119.681 74.7394 119.87 74.9278 119.847 75.4477C119.817 76.3745 119.817 77.3013 119.847 78.2281C119.863 78.7255 119.689 78.9138 119.182 78.9063C117.987 78.8837 116.793 78.9063 115.598 78.9063H115.606Z" fill="#E1E1E1"/>
</g>
<defs>
<clipPath id="clip0_1733_860">
<rect width="138.833" height="112" fill="white" transform="translate(0.583008)"/>
</clipPath>
</defs>
</svg>
