<svg width="234" height="112" viewBox="0 0 234 112" fill="none" xmlns="http://www.w3.org/2000/svg">
<path d="M155.972 18.8748C45.2402 -27.8561 -14.8761 39.688 3.16795 78.6304C39.485 137.044 100.909 79.2396 146 98C214.5 126.5 294.386 77.2884 155.972 18.8748Z" fill="url(#paint0_linear_1733_872)"/>
<g clip-path="url(#clip0_1733_872)">
<path d="M98.2814 103.742C88.2097 103.742 78.138 103.742 68.0664 103.742C67.4715 103.742 67.1741 104.038 67.1741 104.631C67.1741 106.288 67.1741 107.946 67.1741 109.596C67.1666 111.179 66.3575 111.985 64.7772 111.992C62.2215 111.992 59.6733 112 57.1176 111.992C55.5826 111.992 54.7433 111.149 54.7433 109.626C54.7433 98.7384 54.698 87.8579 54.766 76.9699C54.7963 72.3961 57.0722 69.1485 61.2536 67.2497C61.5485 67.1141 61.8585 66.986 62.1761 66.9559C62.9096 66.8805 63.0457 66.4736 63.0457 65.803C63.023 59.9483 63.023 54.0861 63.0457 48.2314C63.0532 45.5942 64.1647 43.5673 66.5617 42.324C67.2271 41.9774 67.9454 41.7589 68.7015 41.7137C69.0645 41.6911 69.4274 41.6835 69.7979 41.6835C88.8297 41.6835 107.862 41.6835 126.886 41.6685C128.617 41.6685 130.175 42.0678 131.483 43.2207C132.716 44.3057 133.487 45.662 133.555 47.3197C133.623 48.9322 133.608 50.5522 133.608 52.1647C133.608 56.746 133.623 61.3348 133.6 65.916C133.6 66.5113 133.812 66.7524 134.372 66.9257C138.16 68.0786 140.557 70.5727 141.608 74.3778C141.88 75.3649 141.918 76.3746 141.925 77.3768C141.94 88.0161 141.933 98.6631 141.933 109.302C141.933 110.794 141.479 111.555 140.413 111.887C140.118 111.977 139.816 111.992 139.513 111.992C136.98 111.992 134.447 111.992 131.914 111.992C130.334 111.992 129.472 111.133 129.464 109.559C129.457 107.863 129.434 106.168 129.472 104.473C129.487 103.877 129.29 103.734 128.708 103.734C118.576 103.749 108.444 103.749 98.3116 103.749L98.2814 103.742ZM98.2663 87.1722C111.015 87.1722 123.763 87.1722 136.511 87.1722C136.716 87.1722 136.92 87.1572 137.116 87.1722C137.555 87.2024 137.736 87.0215 137.736 86.577C137.721 83.3219 137.736 80.0743 137.721 76.8192C137.714 74.7696 136.844 73.127 135.226 71.8762C133.948 70.8891 132.451 70.6179 130.878 70.6179C109.192 70.6179 87.5065 70.6179 65.8207 70.6179C65.6619 70.6179 65.4955 70.6179 65.3367 70.6179C61.5031 70.7083 58.9021 73.3531 58.8794 77.1733C58.8794 77.4973 58.8794 77.8213 58.8794 78.1453C58.8794 80.9333 58.8869 83.7212 58.8718 86.5091C58.8718 87.014 59.0382 87.2174 59.5372 87.1722C59.7414 87.1496 59.9455 87.1722 60.1421 87.1722C72.8527 87.1722 85.5557 87.1722 98.2663 87.1722ZM98.3041 91.3391C85.5784 91.3391 72.8451 91.3391 60.1194 91.3391C59.9001 91.3391 59.6733 91.3541 59.454 91.3391C59.0457 91.3089 58.8794 91.4672 58.8794 91.8967C58.8869 97.0506 58.8869 102.197 58.8794 107.351C58.8794 107.75 59.023 107.886 59.4087 107.878C60.3992 107.863 61.3973 107.848 62.3878 107.878C62.9171 107.901 63.0305 107.682 63.023 107.208C63.0003 105.535 63.0154 103.855 63.023 102.182C63.023 100.411 63.8169 99.6125 65.5636 99.6125C87.4158 99.6125 109.26 99.6125 131.113 99.6125C132.829 99.6125 133.585 100.374 133.593 102.091C133.593 103.787 133.608 105.482 133.585 107.178C133.578 107.698 133.721 107.909 134.273 107.878C135.105 107.841 135.937 107.871 136.768 107.871C137.414 107.871 137.736 107.557 137.736 106.929C137.736 102.039 137.736 97.1561 137.736 92.2659C137.736 91.653 137.424 91.3466 136.799 91.3466C123.967 91.3466 111.136 91.3466 98.3116 91.3466L98.3041 91.3391ZM98.3116 45.8202C88.7692 45.8202 79.2193 45.8202 69.6769 45.8202C68.0891 45.8202 67.1893 46.634 67.1817 48.1485C67.1666 54.0635 67.1817 59.986 67.1666 65.901C67.1666 66.3229 67.3178 66.4812 67.7337 66.4736C68.6864 66.4586 69.6391 66.4435 70.5918 66.4736C71.1363 66.4962 71.3329 66.3305 71.3253 65.7578C71.295 63.3767 71.3026 60.9882 71.3253 58.6071C71.3253 57.5899 71.4614 56.5877 71.9151 55.6609C73.1173 53.197 75.1513 52.0215 77.8583 52.0065C81.828 51.9838 85.8052 51.9763 89.7749 52.0065C92.4894 52.0291 94.5007 53.2271 95.6954 55.6986C96.1491 56.648 96.2625 57.6728 96.2701 58.7051C96.2852 61.0484 96.2852 63.3918 96.2701 65.7352C96.2701 66.2777 96.4062 66.5038 96.9884 66.4736C97.8806 66.4284 98.7729 66.436 99.6651 66.4736C100.24 66.4962 100.444 66.3079 100.436 65.7201C100.406 63.3541 100.421 60.9957 100.421 58.6297C100.421 57.718 100.489 56.8138 100.845 55.9623C101.805 53.6642 103.847 51.9989 107.022 52.0065C110.916 52.0065 114.803 52.0065 118.697 52.0065C119.672 52.0065 120.64 52.1044 121.54 52.5264C123.967 53.6717 125.253 55.5856 125.29 58.2605C125.328 60.7847 125.313 63.3089 125.29 65.8332C125.29 66.3079 125.449 66.4736 125.918 66.4661C126.893 66.4435 127.861 66.4435 128.837 66.4661C129.275 66.4736 129.442 66.3305 129.442 65.8784C129.426 59.9408 129.434 54.0032 129.434 48.0657C129.434 47.6136 129.366 47.1841 129.109 46.7922C128.595 46.0161 127.839 45.8052 126.954 45.8052C117.412 45.8052 107.862 45.8052 98.3192 45.8052L98.3116 45.8202ZM112.852 66.4661C115.362 66.4661 117.873 66.4435 120.383 66.4812C121.018 66.4887 121.162 66.2853 121.154 65.69C121.124 63.3089 121.147 60.9279 121.139 58.5468C121.139 57.0474 120.391 56.1959 118.909 56.1884C114.878 56.1507 110.848 56.1507 106.818 56.1884C105.313 56.2034 104.58 57.0172 104.58 58.5318C104.572 60.9505 104.588 63.3767 104.565 65.7955C104.565 66.3305 104.724 66.4887 105.253 66.4887C107.786 66.4661 110.311 66.4812 112.844 66.4812L112.852 66.4661ZM83.7637 66.4661C86.2967 66.4661 88.8297 66.451 91.3628 66.4736C91.9148 66.4736 92.1038 66.3079 92.1038 65.7427C92.0811 63.3767 92.1038 61.0183 92.0887 58.6523C92.0811 56.9871 91.3023 56.1733 89.6539 56.1658C85.7447 56.1432 81.828 56.1582 77.9188 56.1658C77.4802 56.1658 77.0341 56.1884 76.6258 56.4144C75.7184 56.9042 75.4916 57.733 75.4916 58.6674C75.4916 61.0108 75.5067 63.3541 75.4765 65.6975C75.4689 66.3305 75.6957 66.4812 76.2931 66.4736C78.7883 66.451 81.276 66.4661 83.7712 66.4661H83.7637Z" fill="#E1E1E1"/>
<path d="M47.5983 45.7218C47.5983 41.3741 47.621 37.0339 47.5832 32.6862C47.5756 31.3149 48.1579 30.4559 49.3979 29.9058C61.0197 24.7218 72.6338 19.5226 84.248 14.331C94.7129 9.65933 105.178 4.99517 115.643 0.308412C116.542 -0.0984772 117.42 -0.113547 118.319 0.293342C126.826 4.10604 135.34 7.91121 143.854 11.7164C152.202 15.4462 160.549 19.176 168.897 22.8983C174.182 25.2567 179.468 27.6152 184.753 29.9736C185.872 30.471 186.417 31.3149 186.417 32.5732C186.401 41.4193 186.401 57.4236 186.417 66.2697C186.417 66.88 186.25 67.0985 185.615 67.0684C184.579 67.0156 183.536 67.0307 182.5 67.0684C181.933 67.091 181.766 66.8951 181.766 66.3375C181.789 62.7584 181.774 52.021 181.774 48.4419C181.774 43.7853 181.766 39.1211 181.789 34.4645C181.789 33.8994 181.6 33.6356 181.093 33.4096C168.277 27.6981 155.476 21.964 142.667 16.2374C134.281 12.4925 125.881 8.75513 117.495 5.00271C117.125 4.83694 116.845 4.85201 116.482 5.01024C106.637 9.41821 96.7847 13.8186 86.9399 18.2191C77.5638 22.4085 68.1802 26.5904 58.8042 30.7724C56.8912 31.6238 55.0009 32.528 53.0652 33.3267C52.3771 33.613 52.2032 33.9898 52.2032 34.6905C52.2259 42.753 52.2183 57.9661 52.2183 66.0285C52.2183 66.7167 51.8806 67.0608 51.2051 67.0608C50.2826 67.0608 49.3526 67.0232 48.4301 67.0759C47.7874 67.1136 47.5756 66.9177 47.5832 66.2546C47.6134 61.9747 47.5983 50.5442 47.5983 46.2643C47.5983 46.0834 47.5983 45.9026 47.5983 45.7218Z" fill="#E1E1E1"/>
<path d="M179.271 83.8414C179.271 88.8296 179.271 93.8177 179.271 98.8059C179.271 99.6122 179.271 99.6121 178.477 99.6121C177.585 99.6121 176.692 99.582 175.8 99.6197C175.263 99.6423 175.104 99.4614 175.104 98.934C175.127 95.2795 175.104 91.6251 175.127 87.9706C175.127 87.3603 174.968 87.1794 174.348 87.1794C166.568 87.202 158.787 87.1945 151.007 87.1794C150.394 87.1794 150.198 87.3603 150.205 87.9706C150.228 91.5648 150.22 95.159 150.213 98.7532C150.213 99.5971 150.205 99.6046 149.373 99.6121C148.504 99.6121 147.627 99.582 146.757 99.6197C146.175 99.6498 146.016 99.4087 146.031 98.8737C146.054 97.9695 146.031 97.0578 146.031 96.1461C146.031 87.1417 146.031 78.1374 146.031 69.1256C146.031 68.2139 146.16 67.3473 147.052 66.8199C147.483 66.5637 147.959 66.4658 148.443 66.4658C157.903 66.4658 167.369 66.4582 176.828 66.4658C178.409 66.4658 179.248 67.3398 179.248 68.9372C179.248 73.9028 179.248 78.8683 179.248 83.8414H179.271ZM162.666 83.0352C166.553 83.0352 170.447 83.0276 174.333 83.0503C174.931 83.0503 175.142 82.8996 175.135 82.2666C175.105 78.6574 175.12 75.0406 175.12 71.4313C175.12 70.6326 175.12 70.6326 174.303 70.6326C166.545 70.6326 158.787 70.6326 151.029 70.6326C150.25 70.6326 150.22 70.6627 150.22 71.469C150.22 75.0406 150.22 78.6121 150.22 82.1837C150.22 83.0276 150.235 83.0427 151.06 83.0427C154.931 83.0427 158.795 83.0427 162.666 83.0427V83.0352Z" fill="#E1E1E1"/>
<path d="M162.613 62.337C160.829 62.337 159.044 62.337 157.267 62.337C156.703 62.337 156.421 62.0456 156.421 61.4629C156.421 60.6115 156.451 59.7675 156.413 58.9161C156.39 58.3736 156.549 58.1551 157.124 58.1852C158.092 58.2304 159.067 58.1852 160.042 58.2003C160.436 58.2003 160.579 58.0646 160.572 57.6728C160.557 55.9774 160.557 54.2821 160.572 52.5867C160.572 52.1045 160.345 52.0216 159.937 52.0216C158.235 52.0291 156.534 52.0367 154.833 52.0216C154.288 52.0216 153.736 51.9764 153.26 51.6448C152.428 51.0646 152.118 50.281 152.436 49.2638C153.033 47.3424 153.683 45.4285 154.319 43.5221C155.007 41.4575 155.717 39.4005 156.39 37.3359C156.829 36.0022 157.517 35.4521 158.923 35.4521C161.419 35.4521 163.906 35.4521 166.402 35.4521C167.755 35.4521 168.443 35.9118 168.874 37.1701C170.228 41.1411 171.589 45.1045 172.866 49.0905C173.366 50.6351 172.572 51.999 170.621 52.0291C168.919 52.0517 167.218 52.0291 165.517 52.0366C164.768 52.0366 164.738 52.0743 164.738 52.8278C164.738 54.4026 164.753 55.9774 164.73 57.5523C164.723 58.0571 164.897 58.2304 165.396 58.2153C166.326 58.1852 167.264 58.2379 168.194 58.1927C168.776 58.1626 168.927 58.3962 168.912 58.9312C168.882 59.8354 168.882 60.7471 168.912 61.6588C168.927 62.1787 168.768 62.3671 168.224 62.3596C166.364 62.3294 164.496 62.352 162.628 62.352L162.613 62.337ZM162.636 47.8623C164.194 47.8623 165.751 47.8623 167.309 47.8623C168.005 47.8623 168.05 47.8246 167.838 47.1992C167.067 44.8483 166.265 42.5049 165.494 40.154C165.358 39.732 165.131 39.5889 164.7 39.5964C163.347 39.6115 161.986 39.6115 160.632 39.5964C160.179 39.5964 159.944 39.7622 159.801 40.1992C159.037 42.535 158.25 44.8558 157.464 47.1841C157.275 47.7492 157.343 47.8623 157.948 47.8698C159.506 47.8698 161.063 47.8698 162.621 47.8698L162.636 47.8623Z" fill="#E1E1E1"/>
<path d="M162.606 78.9063C161.449 78.9063 160.299 78.8912 159.15 78.9063C158.674 78.9138 158.507 78.7255 158.515 78.2658C158.538 77.3164 158.538 76.367 158.515 75.4251C158.507 74.9504 158.659 74.7319 159.173 74.7394C161.502 74.7621 163.823 74.7545 166.152 74.7394C166.681 74.7394 166.87 74.9278 166.847 75.4477C166.817 76.3745 166.817 77.3013 166.847 78.2281C166.863 78.7255 166.689 78.9138 166.182 78.9063C164.987 78.8837 163.793 78.9063 162.598 78.9063H162.606Z" fill="#E1E1E1"/>
</g>
<defs>
<linearGradient id="paint0_linear_1733_872" x1="-23.5" y1="-5" x2="247.5" y2="112" gradientUnits="userSpaceOnUse">
<stop stop-color="#F2F2F2"/>
<stop offset="0.595" stop-color="white"/>
<stop offset="1" stop-color="#F2F2F2"/>
</linearGradient>
<clipPath id="clip0_1733_872">
<rect width="138.833" height="112" fill="white" transform="translate(47.583)"/>
</clipPath>
</defs>
</svg>
